<svg xmlns="http://www.w3.org/2000/svg" width="200" height="200" viewBox="0 0 200 200" fill="none">
<path fill-rule="evenodd" clip-rule="evenodd" d="M76.2024 81.1224C65.7242 81.1224 57.2299 89.5742 57.2299 100C57.2299 110.426 65.7242 118.878 76.2024 118.878H95.6877V100V81.1224H76.2024ZM123.89 71.9388L124.403 71.9388C134.881 71.9388 143.375 63.487 143.375 53.0612C143.375 42.6354 134.881 34.1837 124.403 34.1837H104.918V71.9388L123.89 71.9388ZM139.869 76.5306C147.54 71.5156 152.605 62.877 152.605 53.0612C152.605 37.5634 139.979 25 124.403 25H104.918H100.303H95.6877H76.2024C60.6266 25 48 37.5634 48 53.0612C48 62.877 53.0652 71.5156 60.7367 76.5306C53.0652 81.5456 48 90.1843 48 100C48 109.816 53.0652 118.454 60.7367 123.469C53.0652 128.484 48 137.123 48 146.939C48 162.469 60.7866 175 76.3299 175C92.0148 175 104.918 162.354 104.918 146.684V128.061V123.469V120.762C109.927 125.297 116.584 128.061 123.89 128.061H124.403C139.979 128.061 152.605 115.498 152.605 100C152.605 90.1843 147.54 81.5456 139.869 76.5306ZM124.403 81.1224L123.89 81.1224C113.412 81.1224 104.918 89.5742 104.918 100C104.918 110.426 113.412 118.878 123.89 118.878H124.403C134.881 118.878 143.375 110.426 143.375 100C143.375 89.5742 134.881 81.1224 124.403 81.1224ZM57.2299 146.939C57.2299 136.513 65.7242 128.061 76.2024 128.061H95.6877V146.684C95.6877 157.218 86.9822 165.816 76.3299 165.816C65.8192 165.816 57.2299 157.332 57.2299 146.939ZM95.6877 71.9388H76.2024C65.7242 71.9388 57.2299 63.487 57.2299 53.0612C57.2299 42.6354 65.7242 34.1837 76.2024 34.1837H95.6877V71.9388Z" fill="white"/>
</svg>