<svg xmlns="http://www.w3.org/2000/svg" width="362" height="447" viewBox="0 0 362 447" fill="none">
<path fill-rule="evenodd" clip-rule="evenodd" d="M143.721 192.408C125.991 192.408 111.618 206.776 111.618 224.5C111.618 242.224 125.991 256.592 143.721 256.592H176.691V224.5V192.408H143.721ZM224.412 176.796L225.279 176.796C243.009 176.796 257.382 162.428 257.382 144.704C257.382 126.98 243.009 112.612 225.279 112.612H192.309V176.796L224.412 176.796ZM251.448 184.602C264.429 176.077 273 161.391 273 144.704C273 118.358 251.635 97 225.279 97H192.309H184.5H176.691H143.721C117.365 97 96 118.358 96 144.704C96 161.391 104.571 176.077 117.552 184.602C104.571 193.128 96 207.813 96 224.5C96 241.187 104.571 255.872 117.552 264.398C104.571 272.923 96 287.609 96 304.296C96 330.697 117.636 352 143.936 352C170.476 352 192.309 330.503 192.309 303.862V272.204V264.398V259.796C200.785 267.505 212.05 272.204 224.412 272.204H225.279C251.635 272.204 273 250.846 273 224.5C273 207.813 264.429 193.128 251.448 184.602ZM225.279 192.408L224.412 192.408C206.682 192.408 192.309 206.776 192.309 224.5C192.309 242.224 206.682 256.592 224.412 256.592H225.279C243.009 256.592 257.382 242.224 257.382 224.5C257.382 206.776 243.009 192.408 225.279 192.408ZM111.618 304.296C111.618 286.572 125.991 272.204 143.721 272.204H176.691V303.862C176.691 321.771 161.961 336.388 143.936 336.388C126.151 336.388 111.618 321.965 111.618 304.296ZM176.691 176.796H143.721C125.991 176.796 111.618 162.428 111.618 144.704C111.618 126.98 125.991 112.612 143.721 112.612H176.691V176.796Z" fill="white"/>
</svg>