<svg xmlns="http://www.w3.org/2000/svg" width="410" height="410" viewBox="0 0 410 410" fill="none">
<path d="M205 205C205 176.696 227.945 153.75 256.25 153.75C284.554 153.75 307.5 176.695 307.5 205C307.5 233.305 284.554 256.25 256.25 256.25C227.945 256.25 205 233.304 205 205Z" fill="#1ABCFE"/>
<path d="M102.5 307.5C102.5 279.195 125.445 256.25 153.75 256.25H205V307.5C205 335.805 182.055 358.75 153.75 358.75C125.445 358.75 102.5 335.805 102.5 307.5Z" fill="#0ACF83"/>
<path d="M205 51.25V153.75H256.25C284.555 153.75 307.5 130.805 307.5 102.5C307.5 74.1954 284.555 51.25 256.25 51.25H205Z" fill="#FF7262"/>
<path d="M102.5 102.5C102.5 130.805 125.445 153.75 153.75 153.75H205V51.25L153.75 51.25C125.445 51.25 102.5 74.1954 102.5 102.5Z" fill="#F24E1E"/>
<path d="M102.5 205C102.5 233.305 125.445 256.25 153.75 256.25H205V153.75H153.75C125.445 153.75 102.5 176.695 102.5 205Z" fill="#A259FF"/>
</svg>